<?xml version="1.0" encoding="UTF-8"?>
<svg width="17px" height="17px" viewBox="0 0 17 17" version="1.1" xmlns="http://www.w3.org/2000/svg" xmlns:xlink="http://www.w3.org/1999/xlink">
    <!-- Generator: Sketch 53.2 (72643) - https://sketchapp.com -->
    <title>at</title>
    <desc>Created with Sketch.</desc>
    <g id="Page-2" stroke="none" stroke-width="1" fill="none" fill-rule="evenodd">
        <g id="Tablet-Copy-2" transform="translate(-199.000000, -4011.000000)" fill="#FFFFFF" fill-rule="nonzero">
            <g id="at" transform="translate(199.000000, 4011.000000)">
                <path d="M8.5,0 C3.81316084,0 0,3.81316084 0,8.5 C0,13.1868392 3.81316084,17 8.5,17 C9.99466388,17 11.4644051,16.6067481 12.75104,15.8622806 L11.6875046,14.0226044 C10.7235867,14.5803165 9.62111651,14.8750091 8.5,14.8750091 C4.98463345,14.8750091 2.12499088,12.0153666 2.12499088,8.5 C2.12499088,4.98463345 4.98463345,2.12499088 8.5,2.12499088 C12.0153666,2.12499088 14.8750091,4.98463345 14.8750091,8.5 L14.8750091,9.4255305 C14.8750091,10.1207366 14.4283359,10.6249909 13.8124954,10.6249909 C13.2267591,10.6249909 12.7499818,10.1482135 12.7499818,9.56247719 L12.7499818,5.31249544 L11.2812257,5.31249544 C10.5337661,4.6595082 9.56809664,4.24998176 8.5,4.24998176 C6.15658042,4.24998176 4.24998176,6.15658042 4.24998176,8.5 C4.24998176,10.8434196 6.15658042,12.7500182 8.5,12.7500182 C9.61593494,12.7500182 10.6248814,12.3087091 11.3840178,11.602702 C11.9691703,12.2980905 12.8346384,12.7500182 13.8124954,12.7500182 C15.599772,12.7500182 17,11.2896184 17,9.4255305 L17,8.5 C17,3.81316084 13.1868392,2.07421218e-15 8.5,0 Z M8.5,10.6249909 C7.32801654,10.6249909 6.37500912,9.67194697 6.37500912,8.5 C6.37500912,7.32801654 7.32805303,6.37500912 8.5,6.37500912 C9.67198346,6.37500912 10.6249909,7.32805303 10.6249909,8.5 C10.6249909,9.67198346 9.67198346,10.6249909 8.5,10.6249909 L8.5,10.6249909 Z" id="Shape"></path>
            </g>
        </g>
    </g>
</svg>