<?xml version="1.0" encoding="UTF-8"?>
<svg width="289px" height="321px" viewBox="0 0 289 321" version="1.1" xmlns="http://www.w3.org/2000/svg" xmlns:xlink="http://www.w3.org/1999/xlink">
    <!-- Generator: Sketch 53.2 (72643) - https://sketchapp.com -->
    <title>fast-forward copy</title>
    <desc>Created with Sketch.</desc>
    <g id="Page-1" stroke="none" stroke-width="1" fill="none" fill-rule="evenodd">
        <g id="fast-forward-copy" transform="translate(144.500000, 160.500000) rotate(-180.000000) translate(-144.500000, -160.500000) " fill="#FFFFFF" fill-rule="nonzero">
            <path d="M285.977785,152.393337 L151.798658,3.35651439 C147.767224,-1.11995747 141.23202,-1.11861399 137.201796,3.35920135 C135.267119,5.50876767 134.180337,8.42277352 134.179733,11.4623946 L134.179733,132.824222 L17.6189259,3.35651439 C13.5874922,-1.11995747 7.05228787,-1.11861399 3.02206375,3.35920135 C1.08738684,5.50809593 0.000605211891,8.42277352 4.36362286e-07,11.4617229 L4.36362286e-07,309.534696 C-0.00120911469,314.171041 2.51223798,318.351948 6.36828675,320.128027 C7.62077687,320.707738 8.9645881,321.003975 10.3217044,320.999273 C13.0589184,320.998601 15.6836442,319.790142 17.6189259,317.640576 L134.179733,188.17354 L134.179733,309.535367 C134.178523,314.171713 136.69197,318.35262 140.548019,320.128699 C141.800509,320.70841 143.14432,321.004647 144.500832,320.999945 C147.238046,320.999273 149.862772,319.790814 151.798053,317.641248 L285.977785,168.604425 C290.007405,164.12661 290.007405,156.869808 285.977785,152.393337 Z" id="Path"></path>
        </g>
    </g>
</svg>