<?xml version="1.0" encoding="UTF-8"?>
<svg width="12px" height="24px" viewBox="0 0 12 24" version="1.1" xmlns="http://www.w3.org/2000/svg" xmlns:xlink="http://www.w3.org/1999/xlink">
    <!-- Generator: Sketch 53.2 (72643) - https://sketchapp.com -->
    <title>facebook</title>
    <desc>Created with Sketch.</desc>
    <g id="Page-2" stroke="none" stroke-width="1" fill="none" fill-rule="evenodd">
        <g id="Desktop-HD-Copy-9" transform="translate(-1250.000000, -3002.000000)" fill="#8477E3" fill-rule="nonzero" stroke="#8477E3">
            <g id="facebook" transform="translate(1251.000000, 3003.000000)">
                <path d="M9.62342935,0.00457746845 L7.22488406,0 C4.5302007,0 2.78877792,2.12508973 2.78877792,5.41422969 L2.78877792,7.9105521 L0.377147915,7.9105521 C0.16875445,7.9105521 0,8.11150297 0,8.35937288 L0,11.9762596 C0,12.2241295 0.168946872,12.4248515 0.377147915,12.4248515 L2.78877792,12.4248515 L2.78877792,21.5514081 C2.78877792,21.799278 2.95753237,22 3.16592584,22 L6.31241701,22 C6.52081049,22 6.68956494,21.7990492 6.68956494,21.5514081 L6.68956494,12.4248515 L9.50932286,12.4248515 C9.71771632,12.4248515 9.88647077,12.2241295 9.88647077,11.9762596 L9.88762531,8.35937288 C9.88762531,8.24035871 9.84779388,8.12637975 9.77717485,8.04215433 C9.70655584,7.95792891 9.61034462,7.9105521 9.51028497,7.9105521 L6.68956494,7.9105521 L6.68956494,5.79438844 C6.68956494,4.77727495 6.89334026,4.26093651 8.00727356,4.26093651 L9.62304451,4.26024989 C9.83124555,4.26024989 10,4.05929902 10,3.81165799 L10,0.453169377 C10,0.205757206 9.83143798,0.00503521529 9.62342935,0.00457746845 Z" id="Path"></path>
            </g>
        </g>
    </g>
</svg>