<?xml version="1.0" encoding="UTF-8"?>
<svg width="8px" height="17px" viewBox="0 0 8 17" version="1.1" xmlns="http://www.w3.org/2000/svg" xmlns:xlink="http://www.w3.org/1999/xlink">
    <!-- Generator: Sketch 53.2 (72643) - https://sketchapp.com -->
    <title>facebook-logo</title>
    <desc>Created with Sketch.</desc>
    <g id="Page-1" stroke="none" stroke-width="1" fill="none" fill-rule="evenodd">
        <g id="Tablet-home-Copy-5" transform="translate(-357.000000, -1407.000000)" fill="#FFFFFF" fill-rule="nonzero">
            <g id="Group-4-Copy" transform="translate(277.000000, 1397.000000)">
                <g id="facebook-logo" transform="translate(80.000000, 10.000000)">
                    <path d="M7.69874348,0.00353713471 L5.77990725,0 C3.62416056,0 2.23102234,1.64211479 2.23102234,4.18372294 L2.23102234,6.11269935 L0.301718332,6.11269935 C0.13500356,6.11269935 0,6.26797957 0,6.45951541 L0,9.25438241 C0,9.44591825 0.135157498,9.60102161 0.301718332,9.60102161 L2.23102234,9.60102161 L2.23102234,16.6533608 C2.23102234,16.8448966 2.3660259,17 2.53274067,17 L5.04993361,17 C5.21664839,17 5.35165195,16.8447198 5.35165195,16.6533608 L5.35165195,9.60102161 L7.60745829,9.60102161 C7.77417306,9.60102161 7.90917662,9.44591825 7.90917662,9.25438241 L7.91010025,6.45951541 C7.91010025,6.36754991 7.8782351,6.27947526 7.82173988,6.21439198 C7.76524467,6.1493087 7.6882757,6.11269935 7.60822798,6.11269935 L5.35165195,6.11269935 L5.35165195,4.47748198 C5.35165195,3.69153064 5.51467221,3.29254185 6.40581885,3.29254185 L7.69843561,3.29201128 C7.86499644,3.29201128 8,3.13673106 8,2.94537208 L8,0.350176337 C8,0.158994205 7.86515038,0.00389084818 7.69874348,0.00353713471 Z" id="Path"></path>
                </g>
            </g>
        </g>
    </g>
</svg>