<?xml version="1.0" encoding="UTF-8"?>
<svg width="17px" height="17px" viewBox="0 0 17 17" version="1.1" xmlns="http://www.w3.org/2000/svg" xmlns:xlink="http://www.w3.org/1999/xlink">
    <!-- Generator: Sketch 53.2 (72643) - https://sketchapp.com -->
    <title>instagram</title>
    <desc>Created with Sketch.</desc>
    <defs>
        <path d="M16.6735833,6.75367902 L16.6735833,13.4924751 C16.6735833,15.24771 15.2465441,16.6741662 13.4924751,16.6741662 L3.39360804,16.6741662 C1.63895612,16.6741662 0.212499887,15.24771 0.212499887,13.4924751 L0.212499887,6.75367902 L0.212499887,3.39360804 C0.212499887,1.63895612 1.63895612,0.212499887 3.39360804,0.212499887 L13.4918922,0.212499887 C15.2465441,0.212499887 16.6735833,1.63895612 16.6735833,3.39360804 L16.6735833,6.75367902 Z M8.44245864,11.3396746 C10.0391335,11.3396746 11.3408405,10.0402994 11.3408405,8.44245864 C11.3408405,7.81171665 11.1344794,7.22935876 10.7928761,6.75367902 C10.2664805,6.02383711 9.41072343,5.54524266 8.44420746,5.54524266 C7.47710861,5.54524266 6.62193441,6.02325416 6.09437294,6.75309609 C5.75160372,7.22877581 5.5469915,7.81113371 5.54640855,8.4418757 C5.54465974,10.0397165 6.84520075,11.3396746 8.44245864,11.3396746 Z M14.7691155,4.89817834 L14.7691155,2.46964681 L14.7691155,2.10822349 L14.4059434,2.10938937 L11.9785778,2.1169676 L11.9879049,4.90750539 L14.7691155,4.89817834 Z M12.9450937,8.44245864 C12.9450937,10.9240378 10.9257867,12.9445107 8.44304158,12.9445107 C5.96029655,12.9445107 3.94157243,10.9240378 3.94157243,8.44245864 C3.94157243,7.84552721 4.06049236,7.27482813 4.27268282,6.75367902 L1.81558719,6.75367902 L1.81558719,13.4924751 C1.81558719,14.3633887 2.52269443,15.0687472 3.3930251,15.0687472 L13.4913092,15.0687472 C14.360474,15.0687472 15.0687472,14.3633887 15.0687472,13.4924751 L15.0687472,6.75367902 L12.6104857,6.75367902 C12.8244249,7.27482813 12.9450937,7.84552721 12.9450937,8.44245864 Z" id="path-1"></path>
    </defs>
    <g id="Page-1" stroke="none" stroke-width="1" fill="none" fill-rule="evenodd">
        <g id="Tablet-home-Copy-5" transform="translate(-391.000000, -1407.000000)">
            <g id="Group-4-Copy" transform="translate(277.000000, 1397.000000)">
                <g id="instagram" transform="translate(114.000000, 10.000000)">
                    <g id="Combined-Shape2" fill="#000000" fill-rule="nonzero">
                        <path d="M16.6735833,6.75367902 L16.6735833,13.4924751 C16.6735833,15.24771 15.2465441,16.6741662 13.4924751,16.6741662 L3.39360804,16.6741662 C1.63895612,16.6741662 0.212499887,15.24771 0.212499887,13.4924751 L0.212499887,6.75367902 L0.212499887,3.39360804 C0.212499887,1.63895612 1.63895612,0.212499887 3.39360804,0.212499887 L13.4918922,0.212499887 C15.2465441,0.212499887 16.6735833,1.63895612 16.6735833,3.39360804 L16.6735833,6.75367902 Z M8.44245864,11.3396746 C10.0391335,11.3396746 11.3408405,10.0402994 11.3408405,8.44245864 C11.3408405,7.81171665 11.1344794,7.22935876 10.7928761,6.75367902 C10.2664805,6.02383711 9.41072343,5.54524266 8.44420746,5.54524266 C7.47710861,5.54524266 6.62193441,6.02325416 6.09437294,6.75309609 C5.75160372,7.22877581 5.5469915,7.81113371 5.54640855,8.4418757 C5.54465974,10.0397165 6.84520075,11.3396746 8.44245864,11.3396746 Z M14.7691155,4.89817834 L14.7691155,2.46964681 L14.7691155,2.10822349 L14.4059434,2.10938937 L11.9785778,2.1169676 L11.9879049,4.90750539 L14.7691155,4.89817834 Z M12.9450937,8.44245864 C12.9450937,10.9240378 10.9257867,12.9445107 8.44304158,12.9445107 C5.96029655,12.9445107 3.94157243,10.9240378 3.94157243,8.44245864 C3.94157243,7.84552721 4.06049236,7.27482813 4.27268282,6.75367902 L1.81558719,6.75367902 L1.81558719,13.4924751 C1.81558719,14.3633887 2.52269443,15.0687472 3.3930251,15.0687472 L13.4913092,15.0687472 C14.360474,15.0687472 15.0687472,14.3633887 15.0687472,13.4924751 L15.0687472,6.75367902 L12.6104857,6.75367902 C12.8244249,7.27482813 12.9450937,7.84552721 12.9450937,8.44245864 Z" id="path-1"></path>
                    </g>
                    <g id="Atoms-/-Colors-/-Gray-#1-Clipped">
                        <mask id="mask-2" fill="white">
                            <use xlink:href="#path-1"></use>
                        </mask>
                        <g id="path-1"></g>
                        <g id="Atoms-/-Colors-/-Gray-#1" mask="url(#mask-2)" fill="#FFFFFF">
                            <g transform="translate(-5.666667, -5.666667)" id="Atoms-/-Colors-/-Black">
                                <rect x="0" y="0" width="28.6013508" height="28.6013508"></rect>
                            </g>
                        </g>
                    </g>
                </g>
            </g>
        </g>
    </g>
</svg>