<?xml version="1.0" encoding="UTF-8"?>
<svg width="192px" height="56px" viewBox="0 0 192 56" version="1.1" xmlns="http://www.w3.org/2000/svg" xmlns:xlink="http://www.w3.org/1999/xlink">
    <!-- Generator: Sketch 53.2 (72643) - https://sketchapp.com -->
    <title>apple-itunes</title>
    <desc>Created with Sketch.</desc>
    <g id="Page-2" stroke="none" stroke-width="1" fill="none" fill-rule="evenodd">
        <g id="Desktop-HD-Copy-9" transform="translate(-167.000000, -3301.000000)" fill="#FFFFFF" fill-rule="nonzero">
            <g id="apple-itunes" transform="translate(167.000000, 3301.000000)">
                <path d="M47.891,40.926 C46.592,43.807 45.969,45.092 44.296,47.637 C41.962,51.193 38.671,55.616 34.593,55.656 C30.968,55.689 30.036,53.299 25.118,53.324 C20.201,53.35 19.175,55.697 15.552,55.664 C11.474,55.627 8.355,51.631 6.019,48.078 C-0.509,38.14 -1.192,26.478 2.833,20.279 C5.694,15.875 10.209,13.297 14.455,13.297 C18.778,13.297 21.495,15.666 25.067,15.666 C28.534,15.666 30.645,13.293 35.643,13.293 C39.419,13.293 43.421,15.352 46.274,18.902 C36.932,24.021 38.451,37.358 47.891,40.926 L47.891,40.926 Z" id="Path"></path>
                <path d="M31.854,9.319 C33.669,6.989 35.048,3.7 34.548,0.337 C31.581,0.542 28.111,2.429 26.087,4.888 C24.249,7.12 22.732,10.431 23.321,13.65 C26.56,13.749 29.91,11.815 31.854,9.319 L31.854,9.319 Z" id="Path"></path>
                <path d="M64.464,25.131 C64.464,27.15 62.929,28.778 60.526,28.778 C58.221,28.778 56.686,27.147 56.734,25.131 C56.686,23.021 58.221,21.437 60.574,21.437 C62.927,21.437 64.417,23.021 64.464,25.131 Z M56.928,55.135 L56.928,31.659 L64.225,31.659 L64.225,55.135 L56.928,55.135 Z M76.56,28.924 L67.872,28.924 L67.872,22.78 L92.737,22.78 L92.737,28.924 L83.905,28.924 L83.905,55.135 L76.558,55.135 L76.56,28.924 Z M115.921,47.599 C115.921,50.67 116.018,53.166 116.111,55.136 L109.775,55.136 L109.439,51.824 L109.293,51.824 C108.381,53.263 106.172,55.666 101.947,55.666 C97.194,55.666 93.69,52.687 93.69,45.439 L93.69,31.664 L101.035,31.664 L101.035,44.289 C101.035,47.697 102.139,49.76 104.683,49.76 C106.701,49.76 107.852,48.369 108.331,47.217 C108.521,46.785 108.568,46.209 108.568,45.633 L108.568,31.664 L115.915,31.664 L115.915,47.6 L115.921,47.6 L115.921,47.599 L115.921,47.599 Z M121.775,39.147 C121.775,36.217 121.679,33.721 121.584,31.66 L127.92,31.66 L128.256,34.877 L128.402,34.877 C129.361,33.39 131.759,31.133 135.65,31.133 C140.451,31.133 144.048,34.301 144.048,41.213 L144.048,55.135 L136.753,55.135 L136.753,42.125 C136.753,39.103 135.696,37.037 133.058,37.037 C131.04,37.037 129.841,38.431 129.363,39.77 C129.172,40.25 129.076,40.922 129.076,41.594 L129.076,55.131 L121.779,55.131 L121.779,39.148 L121.775,39.147 L121.775,39.147 Z M155.52,45.726 C155.76,48.75 158.737,50.191 162.145,50.191 C164.641,50.191 166.658,49.855 168.624,49.232 L169.585,54.174 C167.186,55.135 164.257,55.661 161.087,55.661 C153.117,55.661 148.559,51.006 148.559,43.659 C148.559,37.706 152.255,31.133 160.415,31.133 C168.001,31.133 170.88,37.034 170.88,42.846 C170.88,44.094 170.735,45.199 170.642,45.725 L155.52,45.726 Z M164.113,40.731 C164.113,38.957 163.343,35.979 159.984,35.979 C156.912,35.979 155.664,38.762 155.47,40.731 L164.113,40.731 Z M175.199,48.75 C176.546,49.563 179.328,50.524 181.488,50.524 C183.697,50.524 184.609,49.754 184.609,48.555 C184.609,47.356 183.888,46.78 181.152,45.867 C176.303,44.236 174.431,41.596 174.48,38.859 C174.48,34.443 178.224,31.129 184.034,31.129 C186.769,31.129 189.221,31.754 190.659,32.475 L189.362,37.516 C188.304,36.94 186.291,36.17 184.274,36.17 C182.5,36.17 181.49,36.891 181.49,38.09 C181.49,39.195 182.402,39.772 185.282,40.779 C189.747,42.314 191.619,44.572 191.667,48.027 C191.667,52.396 188.211,55.66 181.49,55.66 C178.42,55.66 175.679,54.938 173.905,53.977 L175.199,48.75 L175.199,48.75 Z" id="Shape"></path>
            </g>
        </g>
    </g>
</svg>