<?xml version="1.0" encoding="UTF-8"?>
<svg width="31px" height="31px" viewBox="0 0 31 31" version="1.1" xmlns="http://www.w3.org/2000/svg" xmlns:xlink="http://www.w3.org/1999/xlink">
    <!-- Generator: Sketch 53.2 (72643) - https://sketchapp.com -->
    <title>video copy</title>
    <desc>Created with Sketch.</desc>
    <g id="Page-1" stroke="none" stroke-width="1" fill="none" fill-rule="evenodd">
        <g id="Music-Copy" transform="translate(-240.000000, -648.000000)" fill="#FF3467">
            <g id="video-copy" transform="translate(240.000000, 648.000000)">
                <rect id="Rectangle" x="10" y="10" width="3" height="11" rx="1"></rect>
                <rect id="Rectangle-Copy-3" x="17" y="10" width="3" height="11" rx="1"></rect>
                <path d="M15.026,0.002 C6.726,0.002 0,6.728 0,15.028 C0,23.325 6.726,30.049 15.026,30.049 C23.324,30.049 30.051,23.324 30.051,15.028 C30.052,6.728 23.324,0.002 15.026,0.002 Z M15.026,27.542 C8.114,27.542 2.51,21.941 2.51,15.028 C2.51,8.118 8.114,2.51 15.026,2.51 C21.937,2.51 27.54,8.117 27.54,15.028 C27.541,21.941 21.937,27.542 15.026,27.542 Z" id="Shape" fill-rule="nonzero"></path>
            </g>
        </g>
    </g>
</svg>