<?xml version="1.0" encoding="UTF-8"?>
<svg width="268px" height="321px" viewBox="0 0 268 321" version="1.1" xmlns="http://www.w3.org/2000/svg" xmlns:xlink="http://www.w3.org/1999/xlink">
    <!-- Generator: Sketch 53.2 (72643) - https://sketchapp.com -->
    <title>pause</title>
    <desc>Created with Sketch.</desc>
    <g id="Page-1" stroke="none" stroke-width="1" fill="none" fill-rule="evenodd">
        <g id="pause" fill="#FFFFFF" fill-rule="nonzero">
            <path d="M86.9369122,0 L20.0624608,0 C9.00114844,0 0,9.00116602 0,20.0625 L0,300.9375 C0,311.998834 9.00114844,321 20.0624608,321 L86.9375392,321 C97.9988516,321 107,311.998834 107,300.9375 L107,20.0625 C106.999373,9.00116602 97.9982246,0 86.9369122,0 Z" id="Path"></path>
            <path d="M247.936912,0 L181.062461,0 C170.001148,0 161,9.00116602 161,20.0625 L161,300.9375 C161,311.998834 170.001148,321 181.062461,321 L247.937539,321 C258.998852,321 268,311.998834 268,300.9375 L268,20.0625 C267.999373,9.00116602 258.998225,0 247.936912,0 Z" id="Path"></path>
        </g>
    </g>
</svg>