<?xml version="1.0" encoding="UTF-8"?>
<svg width="31px" height="31px" viewBox="0 0 31 31" version="1.1" xmlns="http://www.w3.org/2000/svg" xmlns:xlink="http://www.w3.org/1999/xlink">
    <!-- Generator: Sketch 53.2 (72643) - https://sketchapp.com -->
    <title>video</title>
    <desc>Created with Sketch.</desc>
    <g id="Page-1" stroke="none" stroke-width="1" fill="none" fill-rule="evenodd">
        <g id="Music-Copy" transform="translate(-209.000000, -648.000000)" fill="#FF3467" fill-rule="nonzero">
            <g id="video" transform="translate(209.000000, 648.000000)">
                <path d="M20.6375301,14.6800252 L13.3882782,10.1440252 C13.12224,9.97802522 12.7690713,9.95302522 12.4774748,10.0820252 C12.1835548,10.2100252 12,10.4700252 12,10.7510252 L12,19.8200252 C12,20.1040252 12.1835548,20.3630252 12.4774748,20.4910252 C12.6017808,20.5450252 12.7377043,20.5720252 12.8747895,20.5720252 C13.0536973,20.5720252 13.2349286,20.5230252 13.3882782,20.4260252 L20.6375301,15.8940252 C20.8663927,15.7490252 20.9999927,15.5250252 20.9999927,15.2870252 C21.0011544,15.0450252 20.8640692,14.8220252 20.6375301,14.6800252 Z" id="Path"></path>
                <path d="M15.026,0.002 C6.726,0.002 0,6.728 0,15.028 C0,23.325 6.726,30.049 15.026,30.049 C23.324,30.049 30.051,23.324 30.051,15.028 C30.052,6.728 23.324,0.002 15.026,0.002 Z M15.026,27.542 C8.114,27.542 2.51,21.941 2.51,15.028 C2.51,8.118 8.114,2.51 15.026,2.51 C21.937,2.51 27.54,8.117 27.54,15.028 C27.541,21.941 21.937,27.542 15.026,27.542 Z" id="Shape"></path>
            </g>
        </g>
    </g>
</svg>