<?xml version="1.0" encoding="UTF-8"?>
<svg width="26px" height="14px" viewBox="0 0 26 14" version="1.1" xmlns="http://www.w3.org/2000/svg" xmlns:xlink="http://www.w3.org/1999/xlink">
    <!-- Generator: Sketch 53.2 (72643) - https://sketchapp.com -->
    <title>soundcloud</title>
    <desc>Created with Sketch.</desc>
    <g id="Page-1" stroke="none" stroke-width="1" fill="none" fill-rule="evenodd">
        <g id="Tablet-home-Copy-5" transform="translate(-277.000000, -1407.000000)" fill="#FFFFFF" fill-rule="nonzero">
            <g id="Group-4-Copy" transform="translate(277.000000, 1397.000000)">
                <g id="soundcloud" transform="translate(0.000000, 10.000000)">
                    <path d="M21.9375,6.22222222 C21.64825,6.22222222 21.363875,6.25177778 21.090875,6.30777778 C20.72525,2.772 17.600375,0 13.8125,0 C13.364,0 13,0.348444444 13,0.777777778 L13,13.2222222 C13,13.6515556 13.364,14 13.8125,14 L21.9375,14 C24.178375,14 26,12.2562222 26,10.1111111 C26,7.96755556 24.178375,6.22222222 21.9375,6.22222222 Z" id="Path"></path>
                    <path d="M10.5625,1.55555556 C10.114,1.55555556 9.75,1.904 9.75,2.33333333 L9.75,13.2222222 C9.75,13.6515556 10.114,14 10.5625,14 C11.011,14 11.375,13.6515556 11.375,13.2222222 L11.375,2.33333333 C11.375,1.904 11.011,1.55555556 10.5625,1.55555556 Z" id="Path"></path>
                    <path d="M7.3125,4.66666667 C6.864,4.66666667 6.5,5.01511111 6.5,5.44444444 L6.5,13.2222222 C6.5,13.6515556 6.864,14 7.3125,14 C7.761,14 8.125,13.6515556 8.125,13.2222222 L8.125,5.44444444 C8.125,5.01511111 7.761,4.66666667 7.3125,4.66666667 Z" id="Path"></path>
                    <path d="M4.0625,4.66666667 C3.614,4.66666667 3.25,5.01511111 3.25,5.44444444 L3.25,13.2222222 C3.25,13.6515556 3.614,14 4.0625,14 C4.511,14 4.875,13.6515556 4.875,13.2222222 L4.875,5.44444444 C4.875,5.01511111 4.511,4.66666667 4.0625,4.66666667 Z" id="Path"></path>
                    <path d="M0.8125,7 C0.364,7 0,7.34844444 0,7.77777778 L0,12.4444444 C0,12.8737778 0.364,13.2222222 0.8125,13.2222222 C1.261,13.2222222 1.625,12.8737778 1.625,12.4444444 L1.625,7.77777778 C1.625,7.34844444 1.261,7 0.8125,7 Z" id="Path"></path>
                </g>
            </g>
        </g>
    </g>
</svg>