<?xml version="1.0" encoding="UTF-8"?>
<svg width="16px" height="16px" viewBox="0 0 16 16" version="1.1" xmlns="http://www.w3.org/2000/svg" xmlns:xlink="http://www.w3.org/1999/xlink">
    <!-- Generator: Sketch 53.2 (72643) - https://sketchapp.com -->
    <title>spotify-sketch</title>
    <desc>Created with Sketch.</desc>
    <g id="Page-1" stroke="none" stroke-width="1" fill="none" fill-rule="evenodd">
        <g id="Tablet-home-Copy-5" transform="translate(-322.000000, -1407.000000)" fill="#FFFFFF" fill-rule="nonzero">
            <g id="Group-4-Copy" transform="translate(277.000000, 1397.000000)">
                <g id="spotify-sketch" transform="translate(45.000000, 10.000000)">
                    <path d="M8,16 C12.416,16 16,12.416 16,8 C16,3.584 12.416,0 8,0 C3.584,0 0,3.584 0,8 C0,12.416 3.584,16 8,16 Z M11.248,11.7706667 L11.248,11.7713333 C10.71,11.7713333 9.01066667,9.886 4.23466667,10.8646667 C4.10866667,10.8973333 3.944,10.9486667 3.85066667,10.9486667 C3.24066667,10.9486667 3.124,10.036 3.78,9.89666667 C6.422,9.31333333 9.122,9.36466667 11.4246667,10.742 C11.974,11.0926667 11.7406667,11.7706667 11.248,11.7706667 L11.248,11.7706667 Z M12.1166667,9.65533333 C12.0413333,9.63533333 12.0633333,9.70133333 11.7186667,9.52 C9.702,8.32666667 6.69666667,7.84533333 4.022,8.57133333 C3.86733333,8.61333333 3.78333333,8.65533333 3.638,8.65533333 C2.924,8.65533333 2.73466667,7.58133333 3.51266667,7.362 C6.65666667,6.47866667 10.0293333,6.994 12.3773333,8.39066667 C12.6386667,8.54533333 12.742,8.746 12.742,9.026 C12.7386667,9.374 12.468,9.65533333 12.1166667,9.65533333 L12.1166667,9.65533333 Z M3.032,4.66533333 C6.04733333,3.78266667 10.6106667,4.06133333 13.448,5.71733333 C14.1753333,6.13666667 13.8893333,7.19733333 13.116,7.19733333 L13.1153333,7.19666667 C12.9473333,7.19666667 12.844,7.15466667 12.6986667,7.07066667 C10.4033333,5.7 6.296,5.37133333 3.63866667,6.11333333 C3.522,6.14533333 3.37666667,6.19666667 3.222,6.19666667 C2.796,6.19666667 2.47066667,5.864 2.47066667,5.43533333 C2.47066667,4.99733333 2.742,4.74933333 3.032,4.66533333 L3.032,4.66533333 Z" id="Shape"></path>
                </g>
            </g>
        </g>
    </g>
</svg>