<?xml version="1.0" encoding="UTF-8"?>
<svg width="18px" height="18px" viewBox="0 0 18 18" version="1.1" xmlns="http://www.w3.org/2000/svg" xmlns:xlink="http://www.w3.org/1999/xlink">
    <!-- Generator: Sketch 53.2 (72643) - https://sketchapp.com -->
    <title>spotify-sketch</title>
    <desc>Created with Sketch.</desc>
    <g id="Page-1" stroke="none" stroke-width="1" fill="none" fill-rule="evenodd">
        <g id="Mobile" transform="translate(-109.000000, -2153.000000)" fill="#00D95A" fill-rule="nonzero">
            <g id="spotify-sketch" transform="translate(109.000000, 2153.000000)">
                <path d="M9,18 C13.968,18 18,13.968 18,9 C18,4.032 13.968,0 9,0 C4.032,0 0,4.032 0,9 C0,13.968 4.032,18 9,18 Z M12.654,13.242 L12.654,13.24275 C12.04875,13.24275 10.137,11.12175 4.764,12.22275 C4.62225,12.2595 4.437,12.31725 4.332,12.31725 C3.64575,12.31725 3.5145,11.2905 4.2525,11.13375 C7.22475,10.4775 10.26225,10.53525 12.85275,12.08475 C13.47075,12.47925 13.20825,13.242 12.654,13.242 L12.654,13.242 Z M13.63125,10.86225 C13.5465,10.83975 13.57125,10.914 13.1835,10.71 C10.91475,9.3675 7.53375,8.826 4.52475,9.64275 C4.35075,9.69 4.25625,9.73725 4.09275,9.73725 C3.2895,9.73725 3.0765,8.529 3.95175,8.28225 C7.48875,7.2885 11.283,7.86825 13.9245,9.4395 C14.2185,9.6135 14.33475,9.83925 14.33475,10.15425 C14.331,10.54575 14.0265,10.86225 13.63125,10.86225 L13.63125,10.86225 Z M3.411,5.2485 C6.80325,4.2555 11.937,4.569 15.129,6.432 C15.94725,6.90375 15.6255,8.097 14.7555,8.097 L14.75475,8.09625 C14.56575,8.09625 14.4495,8.049 14.286,7.9545 C11.70375,6.4125 7.083,6.04275 4.0935,6.8775 C3.96225,6.9135 3.79875,6.97125 3.62475,6.97125 C3.1455,6.97125 2.7795,6.597 2.7795,6.11475 C2.7795,5.622 3.08475,5.343 3.411,5.2485 L3.411,5.2485 Z" id="Shape"></path>
            </g>
        </g>
    </g>
</svg>