<?xml version="1.0" encoding="UTF-8"?>
<svg width="24px" height="21px" viewBox="0 0 24 21" version="1.1" xmlns="http://www.w3.org/2000/svg" xmlns:xlink="http://www.w3.org/1999/xlink">
    <!-- Generator: Sketch 53.2 (72643) - https://sketchapp.com -->
    <title>level</title>
    <desc>Created with Sketch.</desc>
    <g id="Page-1" stroke="none" stroke-width="1" fill="none" fill-rule="evenodd">
        <g id="Desktop-HD-Copy-4" transform="translate(-686.000000, -263.000000)" fill="#FF3467" fill-rule="nonzero">
            <g id="level" transform="translate(686.000000, 263.000000)">
                <path d="M1.8306383,17.1554634 C1.52323404,17.3347317 1.3506383,17.6620244 1.3506383,17.9964878 C1.35676596,18.1568049 1.39506383,18.3237805 1.48493617,18.4718049 C1.48493617,18.4789756 1.48493617,18.4789756 1.48493617,18.4789756 C1.66417021,18.7806585 1.98434043,18.9542927 2.3106383,18.9542927 C2.47710638,18.9542927 2.64357447,18.9092195 2.7972766,18.8257317 C3.10468085,18.6449268 3.2772766,18.3191707 3.2772766,17.9847073 C3.2706383,17.8243902 3.23234043,17.6563902 3.14246809,17.5093902 C2.88102128,17.0448293 2.29174468,16.8916829 1.8306383,17.1554634 Z" id="Path"></path>
                <path d="M22.1938723,17.1160244 C21.7332766,16.8522439 21.1506383,17.0069268 20.8815319,17.4684146 C20.7921702,17.6230976 20.7538723,17.7834146 20.7538723,17.949878 C20.7538723,18.2838293 20.9274894,18.6049756 21.2338723,18.7852683 C21.3875745,18.8749024 21.5474043,18.9128049 21.7138723,18.9128049 C22.0462979,18.9128049 22.3659574,18.7396829 22.5457021,18.4318537 C22.6284255,18.2848537 22.6733617,18.117878 22.6733617,17.9509024 C22.6733617,17.6236098 22.500766,17.2968293 22.1938723,17.1160244 Z" id="Path"></path>
                <path d="M1.92051064,14.156561 C1.824,13.6361707 1.32459574,13.2899268 0.806297872,13.3790488 C0.281361702,13.4753415 -0.0643404255,13.970122 0.0316595745,14.4966585 C0.114893617,14.9653171 0.518297872,15.293122 0.972765957,15.293122 C1.03046809,15.293122 1.08765957,15.2869756 1.1453617,15.2741707 C1.66417021,15.1840244 2.00987234,14.6830976 1.92051064,14.156561 Z" id="Path"></path>
                <path d="M23.2049362,13.335 C22.6805106,13.2443415 22.1805957,13.5982683 22.0907234,14.1176341 C22.0008511,14.6436585 22.3531915,15.1379268 22.872,15.2352439 C22.9291915,15.2419024 22.9874043,15.2470244 23.0384681,15.2470244 C23.4995745,15.2470244 23.9024681,14.9197317 23.9851915,14.4515854 C24.0755745,13.925561 23.7237447,13.424122 23.2049362,13.335 Z" id="Path"></path>
                <path d="M0.800170213,11.3763659 C0.851234043,11.3881463 0.90893617,11.3948049 0.96,11.3948049 C1.42059574,11.3948049 1.8306383,11.0613659 1.90723404,10.5927073 C1.92,10.5348293 1.92,10.4769512 1.92,10.4195854 C1.92,9.96373171 1.58706383,9.55909756 1.12595745,9.48226829 C0.601531915,9.39212195 0.101617021,9.73887805 0.0122553191,10.2654146 C0.00612765957,10.3232927 0,10.3811707 0,10.4385366 C0.00612765957,10.8949024 0.33293617,11.2985122 0.800170213,11.3763659 Z" id="Path"></path>
                <path d="M22.0723404,10.3811707 C22.0723404,10.4390488 22.0794894,10.4964146 22.0922553,10.5542927 C22.1683404,11.0162927 22.578383,11.3502439 23.0328511,11.3502439 C23.0900426,11.3502439 23.1482553,11.3435854 23.2054468,11.3312927 C23.6660426,11.2549756 23.9933617,10.8498293 23.9994894,10.3873171 C23.9994894,10.329439 23.9933617,10.2782195 23.9800851,10.2203415 C23.8902128,9.69380488 23.3913191,9.34039024 22.8653617,9.43668293 C22.4052766,9.52017073 22.0779574,9.92480488 22.0723404,10.3811707 Z" id="Path"></path>
                <path d="M1.80510638,7.59431707 C1.95217021,7.67831707 2.11914894,7.72287805 2.27897872,7.72287805 C2.61140426,7.72287805 2.93821277,7.5497561 3.11131915,7.23526829 L3.11131915,7.24141463 C3.37991489,6.77890244 3.22008511,6.18834146 2.75948936,5.92507317 C2.29787234,5.65514634 1.70910638,5.81546341 1.4466383,6.27797561 C1.18417021,6.7404878 1.344,7.33053659 1.80510638,7.59431707 Z" id="Path"></path>
                <path d="M21.7011064,7.68343902 C21.8675745,7.68343902 22.0340426,7.63887805 22.1805957,7.55539024 C22.6411915,7.28546341 22.8010213,6.69439024 22.5324255,6.23904878 C22.2699574,5.77704878 21.6811915,5.62236585 21.2211064,5.88614634 C20.7661277,6.15556098 20.6057872,6.74663415 20.868766,7.2024878 C21.048,7.51082927 21.3737872,7.68343902 21.7011064,7.68343902 Z" id="Path"></path>
                <path d="M4.76885106,4.7244878 C4.99302128,4.7244878 5.21055319,4.65380488 5.38978723,4.49963415 C5.62008511,4.30704878 5.73548936,4.03097561 5.72885106,3.7482439 C5.72885106,3.53619512 5.65174468,3.318 5.50468085,3.13821951 C5.15948936,2.73358537 4.55744681,2.68236585 4.15404255,3.02912195 C3.92374468,3.22170732 3.80834043,3.49778049 3.80834043,3.77385366 C3.81497872,3.99204878 3.88493617,4.2102439 4.03914894,4.38336585 C4.23165957,4.60873171 4.50025532,4.7244878 4.76885106,4.7244878 Z" id="Path"></path>
                <path d="M19.1979574,4.69785366 C19.4742128,4.69785366 19.7484255,4.58209756 19.9337872,4.35109756 C20.0874894,4.17746341 20.1579574,3.95926829 20.1579574,3.74107317 C20.1640851,3.465 20.0425532,3.18892683 19.8188936,2.99634146 C19.4088511,2.65573171 18.8073191,2.70746341 18.4677447,3.1182439 C18.3140426,3.29187805 18.2440851,3.51007317 18.2374468,3.72826829 C18.2374468,4.00434146 18.3533617,4.28092683 18.5836596,4.473 C18.7628936,4.62102439 18.9804255,4.69785366 19.1979574,4.69785366 Z" id="Path"></path>
                <path d="M8.12987234,2.75919512 C8.2386383,2.75919512 8.35353191,2.7402439 8.46280851,2.70182927 C8.96221277,2.51539024 9.21140426,1.9632439 9.03268085,1.46231707 C8.84680851,0.96804878 8.29685106,0.711439024 7.79744681,0.897365854 C7.29804255,1.07714634 7.04834043,1.62929268 7.22757447,2.13021951 C7.3746383,2.52102439 7.73923404,2.75919512 8.12987234,2.75919512 Z" id="Path"></path>
                <path d="M15.5034894,2.68902439 C15.612766,2.72795122 15.7220426,2.74690244 15.8364255,2.74690244 C16.2275745,2.74690244 16.5916596,2.50309756 16.7397447,2.11126829 C16.9189787,1.61034146 16.6626383,1.05819512 16.1637447,0.878414634 C15.6638298,0.698634146 15.1133617,0.955243902 14.928,1.45617073 C14.748766,1.95043902 15.0051064,2.50821951 15.5034894,2.68902439 Z" id="Path"></path>
                <path d="M11.957617,2.07182927 C11.9642553,2.07182927 11.970383,2.07182927 11.9770213,2.07182927 C11.9831489,2.07182927 11.9964255,2.07182927 12.0025532,2.07182927 C12.533617,2.07182927 12.9625532,1.64158537 12.9625532,1.10890244 C12.9625532,0.575707317 12.533617,0.14597561 12.0025532,0.14597561 C11.9959149,0.14597561 11.9897872,0.14597561 11.9831489,0.14597561 C11.970383,0.14597561 11.9642553,0.14597561 11.9514894,0.14597561 C11.4265532,0.14597561 10.997617,0.582365854 10.997617,1.11556098 C10.997617,1.64209756 11.4331915,2.07182927 11.957617,2.07182927 Z" id="Path"></path>
                <path d="M12.0025532,3.83839024 C7.32561702,3.83839024 3.52085106,7.6547561 3.52085106,12.3459512 C3.52085106,17.0366341 7.32561702,20.8535122 12.0025532,20.8535122 C16.6794894,20.8535122 20.4842553,17.0366341 20.4842553,12.3459512 C20.484766,7.6542439 16.68,3.83839024 12.0025532,3.83839024 Z M17.6588936,7.54258537 L16.0748936,10.4933415 C15.9788936,10.6720976 15.804766,10.7945122 15.6040851,10.8242195 C15.5724255,10.8288293 15.5422979,10.8313902 15.5106383,10.8313902 C15.3421277,10.8313902 15.179234,10.7648049 15.0582128,10.6434146 L13.6999149,9.28097561 C13.5569362,9.13756098 13.4895319,8.93421951 13.5191489,8.73395122 C13.548766,8.53317073 13.6708085,8.358 13.8490213,8.26170732 L16.7908085,6.67287805 C17.0394894,6.53817073 17.3474043,6.5837561 17.5465532,6.78402439 C17.7477447,6.98378049 17.7926809,7.29314634 17.6588936,7.54258537 Z" id="Shape"></path>
            </g>
        </g>
    </g>
</svg>