<?xml version="1.0" encoding="UTF-8"?>
<svg width="17px" height="17px" viewBox="0 0 17 17" version="1.1" xmlns="http://www.w3.org/2000/svg" xmlns:xlink="http://www.w3.org/1999/xlink">
    <!-- Generator: Sketch 53.2 (72643) - https://sketchapp.com -->
    <title>broken-link copy 3</title>
    <desc>Created with Sketch.</desc>
    <g id="Page-2" stroke="none" stroke-width="1" fill="none" fill-rule="evenodd">
        <g id="Tablet-Copy-3" transform="translate(-576.000000, -3678.000000)" fill="#FFFFFF" fill-rule="nonzero">
            <g id="broken-link-copy-3" transform="translate(576.000000, 3678.000000)">
                <path d="M12.9209554,7.99360578e-15 C11.8355252,7.99360578e-15 10.8148663,0.42299031 10.0471977,1.19065891 L6.88219961,4.35565698 C7.12408721,4.3218876 7.36574419,4.28521899 7.61300194,4.28521899 C8.29474806,4.28521899 8.96278876,4.41766085 9.57693023,4.66323837 L11.5483702,2.69179845 C11.9153527,2.32531008 12.4026202,2.12315504 12.9209554,2.12315504 C13.9913624,2.12315504 14.8621841,2.99397674 14.8621841,4.06438372 C14.8621841,4.58275194 14.6600291,5.06998643 14.2935407,5.43696899 L10.7449554,8.98562016 C10.0109574,9.71856395 8.73375,9.71909109 7.99975194,8.98614729 L6.49963372,10.4883411 C7.26680814,11.2549884 8.28743411,11.6774516 9.37233721,11.6774516 C10.4577674,11.6774516 11.4783934,11.2544612 12.246095,10.4867926 L15.7947461,6.93814147 C16.5624147,6.17047287 16.985405,5.14981395 16.985405,4.06438372 C16.9853721,1.82305233 15.1623198,8.46179285e-15 12.9209554,7.99360578e-15 Z" id="Path"></path>
                <path d="M7.38982752,12.3407481 L5.43700194,14.2935736 C5.07001938,14.660062 4.58275194,14.8622171 4.06441667,14.8622171 C2.99400969,14.8622171 2.12318798,13.9913953 2.12318798,12.9209884 C2.12318798,12.4026531 2.32534302,11.9153857 2.6918314,11.5484031 L6.24048256,7.99975194 C6.97448062,7.26680814 8.25168798,7.26628101 8.98568605,7.99922481 L10.4858043,6.49703101 C8.95096124,4.96373643 6.27471318,4.96324225 4.73934302,6.49857946 L1.19065891,10.0472306 C0.422957364,10.8148992 6.66133815e-14,11.8355252 6.66133815e-14,12.9209554 C6.66133815e-14,15.1623198 1.82305233,16.9853391 4.06438372,16.9853391 C5.14981395,16.9853391 6.17043992,16.5623488 6.93814147,15.7946802 L10.0611337,12.671688 C9.83311628,12.7023275 9.60628488,12.7389961 9.37230426,12.7389961 C8.68004845,12.7390291 8.00956977,12.600624 7.38982752,12.3407481 Z" id="Path"></path>
            </g>
        </g>
    </g>
</svg>