<?xml version="1.0" encoding="UTF-8"?>
<svg width="32px" height="23px" viewBox="0 0 32 23" version="1.1" xmlns="http://www.w3.org/2000/svg" xmlns:xlink="http://www.w3.org/1999/xlink">
    <!-- Generator: Sketch 53.2 (72643) - https://sketchapp.com -->
    <title>youtube</title>
    <desc>Created with Sketch.</desc>
    <g id="Page-2" stroke="none" stroke-width="1" fill="none" fill-rule="evenodd">
        <g id="Desktop-HD-Copy-9" transform="translate(-1234.000000, -3003.000000)" fill="#8477E3" fill-rule="nonzero">
            <g id="youtube" transform="translate(1234.000000, 3003.000000)">
                <path d="M31.3320081,3.5514864 C30.9453462,2.15931106 29.901359,1.08507664 28.5747087,0.694076957 L28.5467089,0.687312257 C26.0520729,1.86970892e-05 16.0135293,1.86970892e-05 16.0135293,1.86970892e-05 C16.0135293,1.86970892e-05 6.00031872,-0.0135107037 3.48034961,0.687312257 C2.12836618,1.08507664 1.08304566,2.15931106 0.703050314,3.52307466 L0.696383729,3.5514864 C-0.235604847,8.49107061 -0.242271432,14.4264187 0.737716556,19.7150615 L0.696383729,19.4471794 C1.08304566,20.8393547 2.12703286,21.9135891 3.45368327,22.3045888 L3.48168293,22.3113535 C5.97365238,23 16.0148626,23 16.0148626,23 C16.0148626,23 26.0267399,23 28.5480423,22.3113535 C29.901359,21.9135891 30.9466796,20.8393547 31.326675,19.4755911 L31.3333415,19.4471794 C31.7573364,17.1498871 32,14.5062422 32,11.8057738 C32,11.7070092 32,11.6068916 31.9986666,11.5067741 C32,11.4147741 32,11.305186 32,11.1955978 C32,8.49377649 31.7573364,5.85013158 31.2920086,3.28631015 L31.3320081,3.5514864 Z M12.8109019,16.4395936 L12.8109019,6.57260158 L21.1654661,11.5135387 L12.8109019,16.4395936 Z" id="Shape"></path>
            </g>
        </g>
    </g>
</svg>