<?xml version="1.0" encoding="UTF-8"?>
<svg width="21px" height="15px" viewBox="0 0 21 15" version="1.1" xmlns="http://www.w3.org/2000/svg" xmlns:xlink="http://www.w3.org/1999/xlink">
    <!-- Generator: Sketch 53.2 (72643) - https://sketchapp.com -->
    <title>youtube</title>
    <desc>Created with Sketch.</desc>
    <g id="Page-1" stroke="none" stroke-width="1" fill="none" fill-rule="evenodd">
        <g id="Mobile" transform="translate(-191.000000, -2155.000000)" fill="#DD2417" fill-rule="nonzero">
            <g id="youtube" transform="translate(191.000000, 2155.000000)">
                <path d="M20.5616303,2.31618678 C20.3078835,1.40824634 19.6227669,0.707658678 18.7521526,0.452658885 L18.7337777,0.448247124 C17.0966728,1.21937538e-05 10.5088786,1.21937538e-05 10.5088786,1.21937538e-05 C10.5088786,1.21937538e-05 3.93770916,-0.00881132849 2.28397943,0.448247124 C1.3967403,0.707658678 0.710748712,1.40824634 0.461376768,2.29765738 L0.457001822,2.31618678 C-0.154615681,5.53765474 -0.158990627,9.40853395 0.48412649,12.8576488 L0.457001822,12.6829431 C0.710748712,13.5908835 1.39586531,14.2914712 2.26647965,14.5464709 L2.28485442,14.5508827 C3.92020938,15 10.5097536,15 10.5097536,15 C10.5097536,15 17.0800481,15 18.7346528,14.5508827 C19.6227669,14.2914712 20.3087585,13.5908835 20.5581304,12.7014724 L20.5625054,12.6829431 C20.840752,11.184709 21,9.46059274 21,7.69941769 C21,7.63500598 21,7.56971193 20.9991249,7.50441786 C21,7.4444179 21,7.37294737 21,7.30147684 C21,5.53941945 20.840752,3.8153032 20.5353807,2.14324575 L20.5616303,2.31618678 Z M8.40715436,10.7214741 L8.40715436,4.28647929 L13.8898372,7.50882961 L8.40715436,10.7214741 Z" id="Shape"></path>
            </g>
        </g>
    </g>
</svg>