<?xml version="1.0" encoding="UTF-8"?>
<svg width="19px" height="16px" viewBox="0 0 19 16" version="1.1" xmlns="http://www.w3.org/2000/svg" xmlns:xlink="http://www.w3.org/1999/xlink">
    <!-- Generator: Sketch 53.2 (72643) - https://sketchapp.com -->
    <title>youtube</title>
    <desc>Created with Sketch.</desc>
    <g id="Page-1" stroke="none" stroke-width="1" fill="none" fill-rule="evenodd">
        <g id="Tablet-home-Copy-5" transform="translate(-434.000000, -1408.000000)" fill="#FFFFFF" fill-rule="nonzero">
            <g id="Group-4-Copy" transform="translate(277.000000, 1397.000000)">
                <g id="youtube" transform="translate(157.000000, 11.000000)">
                    <path d="M18.6033798,2.47059923 C18.3737993,1.50212943 17.7539319,0.754835923 16.9662333,0.482836144 L16.9496084,0.478130266 C15.4684183,1.30066708e-05 9.50803302,1.30066708e-05 9.50803302,1.30066708e-05 C9.50803302,1.30066708e-05 3.56268924,-0.00939875038 2.06645758,0.478130266 C1.26371742,0.754835923 0.643058358,1.50212943 0.417436124,2.45083454 L0.413477839,2.47059923 C-0.139890378,5.90683173 -0.143848663,10.0357696 0.438019205,13.7148254 L0.413477839,13.5284726 C0.643058358,14.4969424 1.26292576,15.2442359 2.05062444,15.5162357 L2.06724924,15.5209416 C3.5468561,16 9.50882468,16 9.50882468,16 C9.50882468,16 15.4533768,16 16.9504001,15.5209416 C17.7539319,15.2442359 18.374591,14.4969424 18.6002133,13.5482373 L18.6041715,13.5284726 C18.8559185,11.9303563 19,10.0912989 19,8.21271221 C19,8.14400638 19,8.07435939 18.9992083,8.00471238 C19,7.94071243 19,7.8644772 19,7.78824197 C19,5.90871408 18.8559185,4.06965675 18.5796301,2.2861288 L18.6033798,2.47059923 Z M7.60647299,11.436239 L7.60647299,4.57224458 L12.5669955,8.00941826 L7.60647299,11.436239 Z" id="Shape"></path>
                </g>
            </g>
        </g>
    </g>
</svg>